<?xml version="1.0" standalone="no"?>
<!DOCTYPE svg PUBLIC "-//W3C//DTD SVG 20010904//EN"
 "http://www.w3.org/TR/2001/REC-SVG-20010904/DTD/svg10.dtd">
<svg version="1.0" xmlns="http://www.w3.org/2000/svg"
 width="561.000000pt" height="272.000000pt" viewBox="0 0 561.000000 272.000000"
 preserveAspectRatio="xMidYMid meet">

<g transform="translate(0.000000,272.000000) scale(0.100000,-0.100000)"
fill="#000000" stroke="none">
<path d="M1966 2248 c-6 -19 -266 -1810 -266 -1830 0 -10 7 -18 15 -18 8 0 15
3 15 8 0 4 61 421 135 926 74 506 135 921 135 923 0 9 -31 1 -34 -9z"/>
<path d="M763 2162 c-7 -4 -24 -39 -39 -77 -14 -39 -30 -76 -36 -82 -8 -10 -4
-13 18 -13 20 0 25 3 17 11 -19 19 5 71 31 67 25 -4 35 -46 14 -60 -9 -7 -2
-8 21 -4 18 3 44 6 57 6 18 0 24 5 24 23 -1 20 -2 20 -11 5 -12 -22 -59 -24
-59 -4 0 8 -3 22 -7 32 -5 14 -1 16 25 12 26 -4 32 -1 32 14 0 10 -4 18 -10
18 -5 0 -10 -4 -10 -10 0 -5 -9 -10 -20 -10 -13 0 -20 7 -20 19 0 11 -3 26 -6
35 -5 12 1 16 24 16 17 0 33 -6 35 -12 3 -8 6 -6 6 5 1 13 -7 17 -36 17 -21 0
-43 -4 -50 -8z m7 -52 c0 -20 -5 -30 -15 -30 -17 0 -18 4 -9 38 9 32 24 27 24
-8z"/>
<path d="M1026 2146 c7 -18 -24 -123 -39 -133 -12 -7 45 -31 79 -32 31 -1 71
35 79 70 11 51 -19 84 -97 103 -21 5 -26 3 -22 -8z m80 -32 c20 -19 24 -31 20
-52 -9 -38 -52 -74 -79 -66 -31 9 -31 7 -12 79 20 72 32 79 71 39z"/>
<path d="M577 2119 c-16 -9 -18 -19 -12 -77 l7 -67 -44 43 c-42 40 -80 53 -93
32 -3 -5 0 -10 8 -10 17 0 72 -114 63 -129 -5 -7 2 -7 20 1 18 8 22 14 13 16
-14 3 -64 90 -56 98 2 2 23 -17 47 -41 24 -25 47 -45 50 -45 3 0 4 30 2 67
l-2 68 25 -48 c14 -26 23 -52 20 -57 -4 -6 6 -5 20 2 15 7 22 14 16 16 -16 5
-73 121 -66 132 8 12 5 12 -18 -1z"/>
<path d="M1225 2080 c7 -11 -50 -127 -66 -132 -6 -2 1 -9 16 -16 14 -7 24 -8
20 -2 -8 13 52 130 68 130 6 0 3 7 -7 15 -22 17 -40 20 -31 5z"/>
<path d="M325 1959 c-22 -23 -35 -39 -28 -35 14 8 99 -80 97 -101 -3 -20 8
-16 49 23 30 28 36 38 28 52 -9 15 -10 15 -11 -4 0 -11 -9 -29 -20 -39 -19
-17 -20 -17 -39 6 -11 13 -20 27 -21 30 0 13 29 31 40 24 14 -9 13 8 -2 23 -9
9 -14 6 -22 -10 -16 -32 -33 -33 -52 -2 -17 25 -17 27 1 40 11 8 26 12 33 9 8
-3 12 0 10 7 -8 23 -24 17 -63 -23z"/>
<path d="M1287 1980 c-50 -39 -42 -97 19 -137 25 -16 27 -16 39 0 7 9 18 17
25 17 9 0 7 7 -6 21 l-18 21 -9 -26 c-5 -14 -13 -26 -17 -26 -12 0 -50 41 -50
54 0 24 41 76 65 82 34 8 79 -21 72 -47 -6 -24 8 -25 18 -2 9 24 -41 63 -81
63 -17 0 -43 -9 -57 -20z"/>
<path d="M5349 1924 c79 -57 105 -56 61 4 -29 39 -35 42 -78 42 l-46 0 63 -46z"/>
<path d="M2060 1934 c0 -3 14 -10 30 -15 l30 -11 0 -155 c0 -177 9 -211 65
-237 46 -22 169 -21 215 2 60 29 70 65 70 239 l0 151 33 13 32 13 -43 4 c-23
2 -61 2 -85 0 l-42 -4 33 -13 32 -13 0 -149 c0 -205 -13 -229 -127 -229 -107
0 -123 31 -123 237 l0 132 30 16 c17 9 30 18 30 20 0 3 -40 5 -90 5 -49 0 -90
-2 -90 -6z"/>
<path d="M790 1910 c-74 -4 -136 -8 -137 -9 -23 -19 -33 -37 -28 -52 4 -11 2
-19 -4 -19 -19 0 -91 -72 -91 -90 0 -13 -11 -20 -37 -25 -56 -10 -115 -76
-144 -161 -21 -60 -24 -88 -24 -204 1 -157 17 -217 91 -337 74 -119 129 -154
182 -117 22 15 25 15 48 -7 30 -28 32 -59 4 -59 -12 0 -25 -10 -32 -25 -27
-60 56 -87 185 -60 58 12 87 13 110 6 68 -21 167 -17 198 8 21 16 22 22 11 45
-7 15 -20 26 -32 26 -28 0 -26 31 4 59 l24 23 21 -21 c45 -45 101 -12 175 101
67 104 93 175 106 284 15 133 -4 249 -56 344 -34 63 -76 95 -125 95 -33 0 -38
3 -43 27 -3 17 -21 39 -48 58 -28 20 -43 40 -44 54 -1 13 -4 28 -8 34 -8 13
-97 33 -139 30 -18 -1 -93 -5 -167 -8z m-23 -16 c-11 -12 -119 -45 -125 -39
-11 10 17 28 55 35 51 10 78 11 70 4z m308 -14 c24 -20 10 -25 -78 -25 -45 -1
-106 -4 -134 -9 -45 -7 -54 -5 -59 8 -4 9 -4 19 -2 22 25 24 244 28 273 4z
m-296 -19 c8 -5 11 -16 7 -29 -4 -13 -1 -22 9 -26 11 -4 14 -13 10 -26 -5 -14
-2 -20 9 -20 9 0 16 -7 16 -15 0 -23 -15 -18 -36 11 -10 15 -26 34 -35 43 -24
24 -32 53 -17 63 16 10 20 10 37 -1z m-60 -25 c6 -7 9 -20 6 -28 -4 -10 1 -17
16 -21 14 -4 20 -11 16 -21 -4 -9 1 -17 14 -21 10 -4 19 -13 19 -20 0 -12 -4
-12 -26 0 -14 7 -32 22 -40 34 -9 12 -21 21 -28 21 -8 0 -16 8 -20 18 -3 9 -9
22 -12 29 -4 10 7 16 37 22 4 0 12 -5 18 -13z m326 -16 c0 -11 -9 -14 -35 -12
-20 2 -66 -2 -104 -8 -47 -7 -72 -8 -79 -1 -6 6 -8 14 -4 18 12 11 88 21 157
19 50 -1 65 -4 65 -16z m-384 -24 c1 -6 1 -16 0 -23 -1 -6 9 -13 21 -15 15 -2
24 -11 26 -25 2 -16 9 -22 25 -20 35 3 33 -29 -2 -48 -19 -9 -31 -11 -31 -5 0
17 -69 42 -99 35 -63 -14 -66 57 -5 99 36 24 63 25 65 2z m484 -17 c27 -24 35
-39 33 -58 -3 -24 -7 -26 -58 -29 -30 -2 -62 -10 -71 -18 -22 -20 -79 -8 -79
17 0 13 7 19 24 19 18 0 25 6 28 23 2 14 11 23 26 25 14 2 22 9 19 17 -6 15
11 35 30 35 7 0 28 -14 48 -31z m-141 3 c8 -13 -146 -34 -157 -23 -6 6 -1 12
14 15 13 3 33 7 44 9 36 8 94 7 99 -1z m46 4 c0 -3 -4 -8 -10 -11 -5 -3 -10
-1 -10 4 0 6 5 11 10 11 6 0 10 -2 10 -4z m-50 -45 c0 -5 -8 -11 -17 -15 -10
-3 -24 -9 -30 -12 -8 -3 -13 1 -13 9 0 14 16 23 48 26 6 0 12 -3 12 -8z m-104
-28 c38 -16 38 -16 14 -23 -14 -4 -40 -5 -57 -2 -19 3 -39 -1 -48 -8 -17 -14
-31 -7 -20 10 6 9 48 33 71 40 1 0 19 -7 40 -17z m-341 -37 c13 -13 27 -37 31
-53 4 -15 13 -41 22 -57 13 -27 13 -31 -4 -43 -27 -20 -65 -16 -71 7 -6 24 -7
24 -34 8 -17 -11 -22 -10 -33 5 -7 9 -22 17 -33 17 -22 0 -43 18 -43 38 0 19
35 63 68 84 37 24 68 22 97 -6z m756 -15 c22 -21 39 -48 39 -59 0 -25 -23 -44
-43 -36 -10 3 -20 -2 -27 -16 -7 -13 -17 -19 -26 -16 -8 3 -20 9 -28 12 -8 3
-16 -3 -19 -15 -6 -23 -36 -28 -55 -9 -9 9 -12 8 -12 -4 0 -9 9 -20 20 -23 23
-7 60 2 60 16 0 5 15 9 34 9 21 0 36 6 40 15 3 8 16 15 29 15 13 0 28 5 35 12
8 8 14 5 22 -16 13 -34 13 -32 -6 -51 -9 -8 -24 -13 -34 -10 -11 3 -20 0 -24
-10 -6 -18 -47 -20 -64 -3 -8 8 -16 5 -31 -13 -17 -21 -22 -22 -40 -11 -11 6
-30 12 -41 12 -17 0 -20 7 -20 44 0 25 4 47 9 51 5 3 17 30 25 60 28 94 90
113 157 46z m-650 9 c24 -13 24 -36 0 -83 -15 -29 -21 -34 -30 -24 -11 14 -41
92 -41 108 0 12 47 11 71 -1z m195 -5 c4 -9 -4 -25 -20 -40 -14 -13 -26 -33
-26 -44 0 -20 -24 -51 -40 -51 -11 0 -40 29 -40 39 0 5 11 6 24 4 20 -4 25 1
35 41 14 55 54 86 67 51z m290 2 c8 -8 -20 -88 -37 -103 -17 -15 -18 -15 -24
9 -4 14 -15 33 -26 43 -34 30 6 66 65 57 10 -1 20 -4 22 -6z m-189 -27 c7 -14
15 -38 18 -54 5 -22 10 -27 26 -23 15 4 19 1 17 -11 -7 -38 -68 -20 -68 20 0
10 -11 30 -25 44 -14 14 -25 32 -25 40 0 25 43 12 57 -16z m-185 -20 c-4 -30
-17 -40 -24 -18 -6 16 -28 1 -28 -19 0 -27 -33 -94 -44 -90 -6 2 -12 13 -14
24 -2 15 2 21 15 19 13 -1 19 9 23 41 7 49 25 73 54 73 19 0 22 -4 18 -30z
m253 8 c14 -21 14 -23 -2 -27 -10 -2 -21 -8 -25 -15 -5 -6 -8 -2 -8 11 0 12
-3 28 -6 37 -10 25 22 20 41 -6z m-129 -18 c8 0 14 -4 14 -10 0 -15 -37 -12
-43 4 -3 8 -3 17 1 21 4 3 8 1 10 -4 2 -6 10 -11 18 -11z m-214 -42 c-7 -7
-12 -8 -12 -2 0 14 12 26 19 19 2 -3 -1 -11 -7 -17z m388 1 c0 -5 -4 -9 -10
-9 -5 0 -10 7 -10 16 0 8 5 12 10 9 6 -3 10 -10 10 -16z m-202 -1 c-7 -19 -38
-22 -38 -4 0 10 9 16 21 16 12 0 19 -5 17 -12z m-440 -28 c7 0 21 -7 29 -16
10 -9 25 -13 38 -10 14 4 28 0 35 -9 14 -17 56 -20 65 -5 11 19 25 10 25 -15
0 -15 -5 -25 -12 -24 -7 1 -26 -4 -42 -11 -26 -13 -30 -13 -47 9 -18 22 -21
23 -37 7 -23 -20 -27 -20 -48 1 -9 10 -26 17 -37 18 -27 0 -41 26 -33 59 6 25
8 26 29 11 12 -8 28 -15 35 -15z m488 17 c16 6 19 -13 4 -22 -12 -8 -40 12
-40 28 0 8 3 8 11 0 6 -6 18 -9 25 -6z m-36 -26 c0 -14 30 -22 48 -12 23 11
42 3 42 -18 0 -21 19 -41 39 -41 12 0 17 -12 19 -47 1 -25 8 -53 14 -60 8 -10
8 -17 0 -25 -7 -7 -8 -17 -2 -28 13 -24 -5 -83 -36 -120 -65 -77 -123 -91
-206 -50 -67 33 -102 93 -94 157 3 24 1 45 -5 48 -6 5 -4 15 6 31 10 16 14 38
11 64 -3 27 -1 38 7 35 17 -7 38 9 41 31 2 14 12 20 42 22 21 2 43 8 49 13 12
11 25 12 25 0z m198 -18 c-5 -24 -25 -27 -31 -3 -4 15 0 20 15 20 13 0 18 -6
16 -17z m-50 -10 c-2 -9 -8 -18 -15 -20 -7 -3 -9 3 -6 16 6 25 26 28 21 4z
m-288 -13 c0 -5 -5 -10 -11 -10 -5 0 -7 5 -4 10 3 6 8 10 11 10 2 0 4 -4 4
-10z m-90 -10 c0 -5 -4 -10 -10 -10 -5 0 -10 5 -10 10 0 6 5 10 10 10 6 0 10
-4 10 -10z m455 0 c3 -5 1 -10 -4 -10 -6 0 -11 5 -11 10 0 6 2 10 4 10 3 0 8
-4 11 -10z m-713 -14 c9 -1 23 -8 32 -15 8 -7 28 -11 43 -10 15 2 37 -2 49 -9
12 -6 34 -10 50 -9 22 2 31 -4 42 -27 13 -26 13 -30 -2 -38 -22 -13 -20 -23
11 -53 17 -15 34 -23 45 -19 13 4 18 0 18 -16 0 -11 7 -36 14 -55 8 -19 12
-35 8 -35 -3 0 -24 19 -47 43 -22 23 -48 47 -58 52 -12 7 -19 28 -23 72 -6 57
-8 61 -25 50 -14 -9 -24 -9 -37 0 -15 9 -21 7 -30 -8 -15 -23 -35 -24 -52 -4
-11 14 -15 14 -32 -2 -30 -27 -52 -6 -56 52 -3 43 -1 47 15 40 10 -4 25 -8 35
-9z m1011 -22 c7 -44 1 -61 -25 -70 -15 -4 -26 0 -37 15 -16 21 -16 21 -29 1
-16 -26 -42 -26 -49 0 -6 23 -7 24 -33 8 -15 -10 -23 -9 -39 6 -21 19 -21 19
-21 -35 0 -68 -8 -99 -26 -99 -8 0 -34 -20 -57 -45 -24 -25 -46 -45 -49 -45
-3 0 3 24 13 53 10 28 24 51 30 49 17 -4 59 38 59 60 0 10 -5 18 -10 18 -15 0
0 53 19 67 11 7 22 8 34 1 13 -7 25 -5 41 5 13 9 34 13 49 10 17 -3 34 0 45
10 9 8 28 17 42 20 14 2 28 5 31 6 4 0 9 -15 12 -35z m-723 11 c0 -8 6 -15 13
-16 7 0 6 -3 -3 -6 -8 -4 -20 -13 -27 -22 -11 -14 -12 -13 -13 6 0 28 10 53
21 53 5 0 9 -7 9 -15z m404 -1 c9 -24 7 -54 -4 -54 -5 0 -10 7 -10 15 0 8 -7
15 -15 15 -13 0 -13 3 -3 20 15 24 24 25 32 4z m-384 -58 c0 -8 -5 -18 -11
-22 -6 -3 -9 -19 -7 -35 3 -16 1 -29 -3 -29 -15 0 -20 42 -9 71 13 31 30 39
30 15z m366 -3 c16 -21 18 -69 4 -78 -6 -3 -7 1 -4 10 4 8 -1 26 -10 40 -26
40 -17 64 10 28z m-506 -73 c0 -42 -3 -50 -19 -50 -20 0 -31 25 -31 73 0 22 4
27 25 27 23 0 25 -3 25 -50z m675 13 c-12 -66 -14 -71 -36 -66 -18 5 -20 11
-15 42 3 20 6 42 6 49 0 6 11 12 25 12 24 0 26 -2 20 -37z m-822 -38 c10 -105
78 -246 160 -332 25 -27 28 -35 17 -48 -32 -39 -93 4 -162 115 -49 78 -78 160
-86 250 l-8 77 37 -1 37 -1 5 -60z m85 6 c6 -34 6 -60 1 -67 -6 -7 -13 -31
-17 -55 l-8 -44 -22 65 c-17 53 -28 124 -23 150 1 3 14 5 30 6 27 1 29 -2 39
-55z m819 6 c-7 -52 -47 -187 -57 -187 -3 0 -4 15 -2 34 2 18 -3 46 -10 62 -9
18 -12 38 -7 54 4 14 7 39 8 57 1 29 3 31 37 30 l36 -1 -5 -49z m88 -15 c-10
-94 -37 -175 -89 -263 -69 -118 -139 -166 -169 -118 -8 13 2 30 44 80 30 35
64 80 76 99 25 42 58 146 67 216 7 49 8 50 43 51 l35 1 -7 -66z m-755 27 c0
-18 -2 -19 -15 -5 -8 8 -15 17 -15 20 0 3 7 6 15 6 9 0 15 -9 15 -21z m470 11
c0 -5 -4 -10 -10 -10 -5 0 -10 5 -10 10 0 6 5 10 10 10 6 0 10 -4 10 -10z
m-524 -80 c32 -12 77 -72 72 -98 -2 -9 -13 -18 -25 -20 -11 -2 -23 -12 -26
-23 -3 -10 -13 -19 -23 -19 -9 0 -26 -8 -36 -17 -17 -15 -20 -16 -35 0 -10 10
-18 38 -21 74 -4 51 -1 61 22 86 28 30 31 31 72 17z m629 -30 c27 -52 15 -143
-21 -157 -10 -4 -22 0 -29 10 -7 10 -20 17 -29 17 -9 0 -19 7 -23 16 -3 8 -16
20 -29 25 -32 12 -30 37 7 82 26 31 37 37 69 37 34 0 42 -4 55 -30z m-484 -76
c8 -9 33 -25 57 -35 47 -20 61 -41 42 -64 -16 -20 -39 -19 -62 2 -17 16 -18
15 -16 -8 2 -19 -1 -24 -20 -23 -18 1 -22 -4 -19 -18 6 -21 -10 -34 -38 -29
-16 2 -17 0 -7 -12 15 -18 5 -47 -16 -47 -9 0 -26 9 -38 21 -21 19 -21 22 -6
39 10 9 31 33 47 53 17 20 35 37 41 37 21 0 36 29 30 55 -9 36 -24 31 -22 -7
1 -30 -1 -33 -27 -31 -15 1 -25 -2 -22 -7 10 -16 -7 -40 -30 -40 -18 0 -22 -4
-18 -20 8 -31 -24 -37 -53 -10 -13 13 -24 28 -24 34 0 11 45 36 65 36 7 0 29
20 51 45 42 47 63 55 85 29z m314 -4 c3 -11 11 -20 16 -20 5 0 19 -11 31 -25
12 -14 28 -25 36 -25 7 0 20 -6 28 -14 7 -8 19 -16 26 -19 9 -3 3 -15 -16 -36
-23 -23 -32 -28 -43 -20 -7 6 -13 20 -13 30 0 11 -9 19 -22 21 -12 2 -25 12
-28 23 -3 12 -13 20 -25 20 -16 0 -20 6 -18 34 1 30 0 32 -14 18 -18 -18 -10
-67 11 -67 15 0 76 -56 76 -70 0 -5 9 -15 20 -23 20 -14 19 -14 -4 -36 -29
-27 -62 -24 -59 5 1 12 -7 23 -20 29 -13 6 -21 17 -19 28 2 12 -3 16 -20 14
-18 -1 -23 3 -22 21 1 24 -6 28 -22 12 -16 -16 -44 -1 -44 24 0 14 12 28 35
40 19 10 42 27 51 37 22 25 51 24 59 -1z m-165 -77 c0 -9 7 -24 16 -34 14 -16
14 -19 -9 -34 -20 -13 -30 -14 -46 -5 -26 13 -26 15 -1 40 11 11 20 27 20 35
0 8 5 15 10 15 6 0 10 -8 10 -17z m-75 -69 c28 -19 31 -29 10 -37 -19 -8 -60
26 -51 41 9 15 12 15 41 -4z m151 4 c16 -26 -93 -85 -189 -103 -62 -12 -41 9
43 44 43 18 90 41 102 51 27 23 34 24 44 8z m-200 -60 c-8 -4 -21 -5 -30 -2
-12 5 -13 9 -3 24 11 18 13 18 30 3 15 -14 16 -18 3 -25z m241 -1 c-65 -44
-182 -88 -275 -102 -39 -6 -43 -5 -40 11 2 14 16 21 51 26 76 10 156 39 206
73 40 27 47 29 58 15 9 -11 9 -17 0 -23z m-287 -32 c0 -18 -5 -25 -20 -25 -23
0 -24 3 -8 30 17 27 28 25 28 -5z m320 11 c0 -8 6 -17 13 -19 32 -14 -134
-106 -238 -132 -101 -26 -190 -15 -183 22 2 14 21 20 85 29 99 14 191 44 258
84 58 33 65 35 65 16z m10 -76 c0 -5 -4 -10 -10 -10 -5 0 -10 5 -10 10 0 6 5
10 10 10 6 0 10 -4 10 -10z m54 -42 c19 -30 -8 -43 -87 -43 -40 1 -81 4 -92 9
-18 7 -15 11 25 32 55 29 136 30 154 2z"/>
<path d="M750 1426 c0 -2 15 -6 34 -8 19 -2 32 0 30 4 -5 8 -64 12 -64 4z"/>
<path d="M936 1422 c-2 -4 11 -6 30 -4 19 2 34 6 34 8 0 8 -59 4 -64 -4z"/>
<path d="M762 1389 c-30 -11 -28 -26 6 -42 42 -21 67 -16 67 12 0 28 -37 43
-73 30z"/>
<path d="M933 1384 c-18 -8 -16 -41 1 -47 26 -10 71 8 71 29 0 14 -8 19 -30
21 -16 1 -36 0 -42 -3z m17 -24 c0 -5 -4 -10 -10 -10 -5 0 -10 5 -10 10 0 6 5
10 10 10 6 0 10 -4 10 -10z"/>
<path d="M834 1285 c-3 -8 -3 -19 1 -25 8 -13 75 -13 75 0 0 6 -16 10 -36 10
-28 0 -35 3 -30 15 3 8 3 15 0 15 -2 0 -7 -7 -10 -15z"/>
<path d="M847 1208 c-9 -5 -21 -7 -26 -3 -5 3 -12 1 -16 -5 -4 -6 20 -10 66
-10 62 0 86 8 46 16 -7 2 -21 5 -32 7 -12 3 -29 1 -38 -5z"/>
<path d="M856 1159 c6 -11 44 -12 44 -1 0 4 -11 8 -25 8 -14 1 -22 -2 -19 -7z"/>
<path d="M1484 1881 c8 -12 -102 -93 -115 -85 -6 4 -5 -4 2 -17 10 -17 14 -20
16 -9 4 16 81 75 89 68 2 -3 -5 -35 -17 -72 -11 -38 -18 -70 -15 -73 2 -3 29
14 60 37 30 23 60 39 66 35 16 -10 12 11 -5 25 -12 10 -15 10 -15 -1 0 -13
-68 -65 -75 -57 -2 2 5 30 16 63 18 59 17 95 -2 95 -6 0 -8 -4 -5 -9z"/>
<path d="M197 1816 c-28 -36 -34 -52 -16 -40 15 9 119 -65 119 -84 0 -13 3
-12 15 4 16 21 19 35 8 32 -12 -3 -53 22 -53 32 0 5 23 10 52 12 28 2 53 8 55
13 2 6 -16 9 -46 7 -48 -4 -50 -3 -53 25 -2 22 -9 29 -29 31 -20 2 -32 -5 -52
-32z m67 -8 c18 -29 -6 -44 -38 -23 -21 14 -24 20 -15 32 15 17 38 13 53 -9z"/>
<path d="M4413 1821 c-39 -25 -52 -71 -28 -107 9 -14 37 -37 63 -52 57 -33 92
-66 92 -87 0 -29 -38 -55 -79 -55 -36 0 -41 3 -52 35 -18 48 -39 46 -39 -4 0
-45 11 -51 107 -51 52 0 66 4 92 26 24 20 31 34 31 63 0 44 -15 60 -107 115
-48 29 -63 43 -63 60 0 32 23 49 68 50 33 1 39 -3 51 -31 20 -46 41 -43 41 6
0 35 -3 39 -31 45 -58 11 -114 6 -146 -13z"/>
<path d="M5364 1828 c-6 -7 -39 -75 -74 -152 -45 -97 -71 -141 -87 -149 -40
-18 -25 -27 42 -27 40 0 65 4 65 11 0 6 -9 13 -20 16 -24 6 -24 6 -4 60 l17
43 59 0 c53 0 59 -2 68 -25 22 -59 23 -73 1 -80 -44 -14 -18 -25 59 -25 82 0
99 8 56 28 -18 8 -37 45 -83 159 -58 144 -77 171 -99 141z m30 -122 c9 -27 16
-51 16 -53 0 -2 -20 -3 -45 -3 -25 0 -45 4 -45 9 0 20 44 111 50 104 4 -4 15
-30 24 -57z"/>
<path d="M2560 1825 c0 -2 14 -11 30 -20 l30 -16 0 -125 0 -125 -30 -10 c-51
-18 -34 -29 45 -29 79 0 96 11 45 29 l-30 10 0 111 c0 61 3 109 8 106 4 -2 52
-61 107 -130 58 -72 107 -125 118 -126 15 0 17 14 17 150 l0 150 25 6 c49 12
24 24 -50 24 -41 0 -75 -2 -75 -6 0 -3 14 -10 30 -15 l30 -11 0 -96 -1 -97
-40 45 c-22 25 -63 75 -92 112 l-52 67 -57 1 c-32 0 -58 -2 -58 -5z"/>
<path d="M3010 1825 c0 -2 14 -11 30 -20 l30 -16 0 -125 0 -125 -30 -10 c-52
-19 -33 -29 55 -29 87 0 104 8 60 28 -25 11 -25 13 -25 142 l0 130 25 6 c51
13 23 24 -60 24 -47 0 -85 -2 -85 -5z"/>
<path d="M3224 1815 c10 -8 23 -16 27 -17 4 -2 35 -68 68 -148 43 -106 64
-146 78 -148 14 -2 30 25 83 144 53 118 71 149 95 162 l30 17 -64 3 c-57 3
-92 -5 -66 -15 35 -13 34 -20 -13 -131 -25 -61 -49 -108 -53 -104 -3 4 -23 54
-44 111 l-38 103 24 19 c24 19 24 19 -61 18 -76 0 -83 -1 -66 -14z"/>
<path d="M3630 1821 c0 -5 11 -12 25 -15 l25 -6 0 -130 c0 -129 0 -131 -25
-142 -49 -22 -23 -29 113 -26 l137 3 3 43 c4 49 -7 54 -31 12 -17 -28 -22 -30
-78 -30 l-59 0 0 65 0 65 49 0 c41 0 51 -4 56 -20 3 -11 13 -20 21 -20 10 0
14 13 14 49 0 59 -11 70 -34 35 -15 -21 -23 -25 -59 -22 l-42 3 -3 63 -3 62
59 0 c53 0 60 -2 70 -25 16 -36 32 -31 32 10 l0 35 -135 0 c-74 0 -135 -4
-135 -9z"/>
<path d="M3994 1815 c11 -8 23 -15 28 -15 4 0 8 -60 8 -134 l0 -134 -25 -6
c-52 -13 -23 -26 60 -26 83 0 112 13 60 26 -23 6 -25 10 -25 70 0 35 4 64 9
64 5 0 36 -36 70 -80 61 -79 63 -80 107 -80 45 0 59 14 25 25 -11 3 -44 37
-75 75 -53 66 -55 69 -33 76 39 11 57 35 57 74 0 69 -12 75 -157 78 -116 2
-126 1 -109 -13z m188 -22 c22 -20 24 -66 3 -86 -16 -16 -69 -32 -82 -24 -5 3
-6 32 -5 66 4 61 4 61 35 61 17 0 39 -7 49 -17z"/>
<path d="M4670 1824 c0 -3 14 -10 30 -15 l30 -11 0 -129 0 -130 -30 -10 c-49
-17 -24 -29 60 -29 84 0 109 12 60 29 l-30 10 0 130 0 129 30 11 c17 5 30 12
30 15 0 4 -40 6 -90 6 -49 0 -90 -2 -90 -6z"/>
<path d="M4890 1790 c0 -48 14 -51 35 -10 13 25 22 30 50 30 l35 0 0 -135 0
-136 -30 -13 c-45 -19 -26 -26 67 -26 86 0 105 10 53 29 l-31 10 3 133 3 133
40 0 c33 0 42 -4 53 -27 19 -40 32 -35 32 12 l0 40 -155 0 -155 0 0 -40z"/>
<path d="M133 1698 c-6 -7 -17 -28 -26 -46 -14 -28 -14 -33 -2 -28 15 5 126
-39 136 -55 3 -5 11 2 17 16 10 21 9 24 -6 23 -48 -4 -53 1 -46 37 4 22 2 41
-6 50 -15 18 -54 20 -67 3z m61 -30 c18 -29 -6 -44 -43 -28 -34 14 -37 20 -19
38 17 17 48 11 62 -10z"/>
<path d="M1600 1703 c0 -18 -99 -66 -121 -60 -22 6 -23 0 -4 -33 9 -17 14 -20
15 -9 0 17 116 73 131 63 14 -8 10 10 -6 32 -8 10 -15 13 -15 7z"/>
<path d="M1633 1600 c9 -6 17 -19 17 -29 0 -22 -122 -55 -140 -37 -8 8 -10 6
-6 -6 3 -10 8 -25 11 -35 5 -14 7 -14 18 -1 6 8 38 22 70 31 50 14 59 14 64 1
3 -8 0 -21 -7 -29 -10 -12 -10 -15 2 -15 25 0 26 9 9 68 -13 41 -22 58 -37 60
-17 3 -18 2 -1 -8z"/>
<path d="M68 1535 c-4 -18 -2 -22 6 -16 7 6 34 5 71 -2 57 -11 60 -14 63 -43
4 -45 -13 -54 -78 -42 -30 5 -60 14 -66 19 -8 7 -13 2 -16 -16 -4 -21 -2 -24
16 -19 12 3 43 0 68 -5 58 -13 74 -8 87 30 18 52 1 76 -66 89 -32 7 -63 16
-69 21 -8 7 -13 1 -16 -16z"/>
<path d="M1530 1413 c0 -19 3 -23 13 -15 20 16 57 -4 57 -32 0 -26 -32 -52
-50 -41 -6 4 -10 -6 -10 -22 0 -16 4 -23 8 -17 4 7 36 24 72 39 36 15 69 30
73 35 5 4 -17 17 -50 29 -32 11 -70 27 -85 35 -27 15 -28 14 -28 -11z m130
-43 c0 -8 -24 -20 -41 -20 -5 0 -9 8 -9 19 0 14 6 17 25 13 14 -2 25 -8 25
-12z"/>
<path d="M145 1342 c-6 -4 -21 -22 -34 -39 -26 -38 -47 -42 -57 -11 -4 15 -1
25 12 35 15 11 15 13 2 13 -16 0 -28 -20 -28 -45 0 -18 28 -45 46 -45 14 0 21
7 62 60 17 21 22 22 36 11 21 -18 20 -40 -1 -58 -17 -13 -17 -14 2 -11 14 2
21 12 23 34 4 45 -33 78 -63 56z"/>
<path d="M1660 1249 c0 -5 5 -9 10 -9 6 0 10 -9 10 -21 0 -20 -4 -21 -62 -14
-39 4 -68 13 -75 23 -11 13 -13 13 -13 1 0 -8 -3 -25 -6 -39 -4 -19 -3 -21 5
-9 15 23 141 4 141 -22 0 -10 -8 -23 -17 -28 -16 -9 -16 -10 3 -11 17 0 23 8
28 38 4 20 9 49 12 63 4 21 1 28 -15 32 -12 3 -21 1 -21 -4z"/>
<path d="M2910 1233 c0 -5 14 -14 30 -20 l30 -11 0 -185 0 -185 -30 -11 c-16
-5 -30 -12 -30 -15 0 -4 45 -6 101 -6 96 0 123 11 59 23 l-30 6 0 75 0 74 58
7 c106 13 152 52 152 129 0 95 -42 120 -212 124 -71 2 -128 0 -128 -5z m248
-45 c67 -72 18 -178 -83 -178 l-35 0 0 100 0 100 48 0 c37 0 53 -5 70 -22z"/>
<path d="M157 1105 c-32 -13 -65 -21 -74 -18 -13 5 -14 3 -3 -17 8 -14 15 -19
19 -12 7 12 81 46 86 40 2 -2 -12 -28 -30 -58 -34 -55 -44 -90 -25 -90 6 0 10
4 10 9 0 12 117 54 129 46 13 -7 13 2 1 30 -5 11 -9 14 -9 7 -1 -14 -85 -56
-101 -50 -4 2 12 33 36 71 24 37 38 67 31 66 -6 0 -38 -11 -70 -24z"/>
<path d="M2096 1122 c-3 -6 8 -15 24 -21 l30 -10 0 -130 0 -129 -32 -13 c-31
-13 -26 -14 77 -17 135 -4 166 2 206 35 86 73 77 219 -16 267 -32 17 -63 22
-161 24 -74 3 -124 0 -128 -6z m261 -55 c22 -22 28 -37 30 -89 6 -99 -30 -143
-125 -155 l-52 -6 0 143 0 142 60 -4 c49 -3 66 -10 87 -31z"/>
<path d="M2520 1121 c0 -5 14 -14 30 -20 l30 -10 0 -130 0 -129 -32 -13 -33
-13 48 -4 c26 -2 68 -2 95 0 l47 4 -32 13 -33 13 0 129 0 130 30 10 c16 6 27
15 24 20 -7 12 -174 12 -174 0z"/>
<path d="M3300 1122 c0 -5 11 -14 25 -20 25 -11 25 -13 25 -142 l0 -130 -25
-6 c-51 -13 -23 -24 60 -24 47 0 85 2 85 6 0 3 -13 10 -30 15 l-30 11 0 129 0
130 30 10 c52 19 33 29 -55 29 -47 0 -85 -4 -85 -8z"/>
<path d="M3582 1114 c-13 -9 -27 -27 -33 -41 -17 -45 -1 -72 74 -121 81 -54
97 -74 81 -100 -33 -52 -106 -50 -129 4 -20 48 -37 43 -33 -8 l3 -43 52 -9
c99 -17 173 19 173 83 0 47 -9 59 -74 97 -82 49 -96 63 -96 90 0 28 27 44 72
44 29 0 37 -5 51 -35 23 -48 39 -45 35 8 l-3 42 -75 3 c-57 2 -81 -1 -98 -14z"/>
<path d="M3904 980 c-54 -118 -74 -152 -91 -156 -45 -12 -22 -24 45 -24 l67 0
-24 19 c-24 18 -24 20 -9 57 l16 39 62 0 63 0 14 -40 c13 -37 12 -40 -9 -57
-22 -17 -21 -18 62 -17 77 0 83 1 66 14 -11 8 -23 15 -27 15 -4 0 -34 67 -66
150 -78 200 -78 200 -169 0z m94 35 c5 -16 13 -38 17 -47 6 -16 1 -18 -39 -18
-25 0 -46 4 -46 9 0 21 43 102 50 95 4 -5 12 -22 18 -39z"/>
<path d="M1500 1112 c0 -6 -3 -18 -7 -28 -4 -12 -3 -15 6 -10 15 10 141 -32
142 -47 0 -7 4 -3 9 8 11 27 12 37 1 31 -10 -7 -118 29 -137 45 -9 8 -14 8
-14 1z"/>
<path d="M1460 1010 c-6 -12 -10 -33 -8 -48 3 -23 8 -27 33 -26 17 1 44 7 62
15 18 7 35 10 39 7 12 -12 -5 -56 -24 -61 -16 -4 -16 -5 0 -6 27 -2 52 43 38
68 -13 25 -38 27 -85 4 -27 -13 -38 -14 -47 -5 -18 18 6 64 28 55 12 -4 15 -3
10 5 -11 18 -34 14 -46 -8z"/>
<path d="M290 966 c0 -19 -96 -80 -115 -72 -20 7 -19 -4 5 -34 16 -20 20 -22
20 -7 0 19 97 84 118 79 10 -2 9 4 -4 22 -19 29 -24 32 -24 12z"/>
<path d="M1353 783 c-16 -6 -17 -35 -1 -51 16 -16 23 -15 42 4 12 12 13 20 6
35 -11 19 -23 22 -47 12z"/>
<path d="M370 756 c-27 -33 18 -72 48 -42 13 13 14 20 6 34 -15 23 -38 26 -54
8z"/>
<path d="M1069 667 c-13 -7 -25 -21 -26 -32 -2 -16 -1 -15 7 3 13 31 54 27 58
-5 2 -13 -1 -23 -7 -23 -6 0 -11 -4 -11 -9 0 -5 7 -8 16 -7 9 0 21 -7 27 -16
9 -14 8 -21 -6 -35 -14 -15 -21 -16 -37 -5 -21 13 -26 6 -12 -15 6 -10 16 -8
42 5 41 20 51 55 22 73 -12 8 -17 20 -14 34 6 32 -25 48 -59 32z"/>
<path d="M645 659 c-16 -4 -22 -7 -12 -8 9 0 17 -5 17 -10 0 -19 -21 -66 -33
-73 -8 -5 -7 -8 5 -8 9 0 25 -3 35 -6 14 -6 15 -4 6 6 -8 9 -7 23 4 57 8 24
14 45 12 47 -2 1 -17 -1 -34 -5z"/>
<path d="M746 625 c-3 -8 -1 -15 4 -15 6 0 10 5 10 11 0 6 10 9 22 7 31 -4 36
-38 8 -45 l-23 -6 24 -18 c20 -15 22 -21 13 -36 -16 -25 -45 -28 -62 -7 -13
18 -14 18 -10 -1 6 -39 98 -27 98 13 0 10 -5 23 -11 29 -9 9 -8 16 5 28 9 9
16 20 16 24 0 30 -83 44 -94 16z"/>
<path d="M939 604 c-14 -22 -31 -50 -38 -63 -13 -23 -12 -23 24 -19 30 3 39 1
43 -14 2 -10 8 -15 13 -13 4 3 6 12 3 19 -3 8 2 16 13 19 16 4 16 5 1 6 -13 1
-18 10 -19 34 0 17 -4 40 -8 51 -6 16 -10 13 -32 -20z m21 -34 c0 -25 -4 -30
-25 -30 -24 0 -24 0 -7 30 22 38 32 38 32 0z"/>
</g>
</svg>
